<?xml version="1.0" encoding="UTF-8"?>
<!DOCTYPE svg PUBLIC "-//W3C//DTD SVG 1.1//EN" "http://www.w3.org/Graphics/SVG/1.1/DTD/svg11.dtd">
<svg xmlns="http://www.w3.org/2000/svg" version="1.1" width="150px" height="150px" style="shape-rendering:geometricPrecision; text-rendering:geometricPrecision; image-rendering:optimizeQuality; fill-rule:evenodd; clip-rule:evenodd" xmlns:xlink="http://www.w3.org/1999/xlink">
<g><path style="opacity:1" fill="#010101" d="M -0.5,-0.5 C 49.5,-0.5 99.5,-0.5 149.5,-0.5C 149.5,23.8333 149.5,48.1667 149.5,72.5C 145.5,68.8333 141.5,65.1667 137.5,61.5C 134.204,57.7024 130.704,54.0357 127,50.5C 126.506,48.8659 126.34,47.1992 126.5,45.5C 124.735,44.5386 122.735,44.2053 120.5,44.5C 106.702,30.2015 92.7019,16.0348 78.5,2C 75.5356,2.77187 73.2023,4.6052 71.5,7.5C 68.5,9.83333 65.8333,12.5 63.5,15.5C 60.5,17.8333 57.8333,20.5 55.5,23.5C 50.1667,28.1667 45.1667,33.1667 40.5,38.5C 35.5,42.8333 30.8333,47.5 26.5,52.5C 23.5298,48.6803 20.6964,44.6803 18,40.5C 16.0146,48.3838 14.8479,56.3838 14.5,64.5C 12.8333,65.5 11.5,66.8333 10.5,68.5C 9.16667,69.1667 8.16667,70.1667 7.5,71.5C 5.83333,72.8333 4.16667,74.1667 2.5,75.5C 1.83333,74.1667 0.833333,73.1667 -0.5,72.5C -0.5,48.1667 -0.5,23.8333 -0.5,-0.5 Z"/></g>
<g><path style="opacity:1" fill="#393939" d="M 71.5,7.5 C 69.8333,11.1667 67.1667,13.8333 63.5,15.5C 65.8333,12.5 68.5,9.83333 71.5,7.5 Z"/></g>
<g><path style="opacity:1" fill="#383838" d="M 63.5,15.5 C 61.8333,19.1667 59.1667,21.8333 55.5,23.5C 57.8333,20.5 60.5,17.8333 63.5,15.5 Z"/></g>
<g><path style="opacity:1" fill="#464646" d="M 120.5,44.5 C 119.508,44.3284 118.842,44.6618 118.5,45.5C 105.787,31.2825 92.4532,17.4492 78.5,4C 76.1226,4.82739 73.7892,5.99406 71.5,7.5C 73.2023,4.6052 75.5356,2.77187 78.5,2C 92.7019,16.0348 106.702,30.2015 120.5,44.5 Z"/></g>
<g><path style="opacity:1" fill="#0b0b0b" d="M 64.5,39.5 C 63.1498,40.6499 63.3164,41.3166 65,41.5C 67.2527,40.6227 69.4194,39.6227 71.5,38.5C 79.5,38.5 87.5,38.5 95.5,38.5C 95.5,43.5 95.5,48.5 95.5,53.5C 94.9553,55.5932 94.122,57.5932 93,59.5C 90.5797,54.67 88.7464,49.67 87.5,44.5C 84.1501,44.335 80.8168,44.5017 77.5,45C 78.9308,45.4652 80.0975,46.2986 81,47.5C 84.1404,54.5858 87.4738,61.5858 91,68.5C 92.4307,66.6365 93.5974,64.6365 94.5,62.5C 95.4902,68.6446 95.8235,74.9779 95.5,81.5C 93.4727,81.3379 91.4727,81.5045 89.5,82C 93.9976,84.9742 97.3309,88.9742 99.5,94C 97.315,98.3405 94.315,101.841 90.5,104.5C 89.7109,104.783 89.0442,105.283 88.5,106C 90.8098,106.497 93.1432,106.663 95.5,106.5C 88.6748,107.166 81.6748,107.5 74.5,107.5C 67.1333,107.497 60.1333,106.83 53.5,105.5C 58.1913,102.869 59.6913,98.8689 58,93.5C 56.5905,92.2125 55.0905,91.0458 53.5,90C 57.4327,86.1238 57.4327,82.2905 53.5,78.5C 53.1832,74.2984 53.5166,70.2984 54.5,66.5C 62.3947,71.1168 69.5613,70.1168 76,63.5C 80.0025,49.16 74.5025,42.66 59.5,44C 57.5483,44.3661 55.8816,45.1995 54.5,46.5C 53.5269,44.0521 53.1936,41.3854 53.5,38.5C 57.3714,38.185 61.0381,38.5184 64.5,39.5 Z"/></g>
<g><path style="opacity:1" fill="#e9e9e9" d="M 26.5,52.5 C 27.1283,55.09 28.295,57.4234 30,59.5C 34.3472,53.4714 38.1805,47.138 41.5,40.5C 42.1667,41.8333 42.8333,43.1667 43.5,44.5C 44.3399,51.8862 45.5066,59.2195 47,66.5C 47.7504,67.1258 48.5838,67.6258 49.5,68C 45.5,68.6667 41.5,68.6667 37.5,68C 38.5784,67.3261 39.2451,66.3261 39.5,65C 38.8355,60.8555 38.3355,56.6888 38,52.5C 34.2061,57.7548 31.2061,63.4215 29,69.5C 26.6067,65.9464 24.4401,62.2797 22.5,58.5C 21.5604,56.3875 20.3937,54.3875 19,52.5C 17.5949,55.6188 17.0949,58.9521 17.5,62.5C 17.5,62.8333 17.5,63.1667 17.5,63.5C 16.5655,64.5676 16.2322,65.901 16.5,67.5C 15.448,67.6495 14.448,67.4828 13.5,67C 14.2524,66.3292 14.5858,65.4959 14.5,64.5C 14.8479,56.3838 16.0146,48.3838 18,40.5C 20.6964,44.6803 23.5298,48.6803 26.5,52.5 Z"/></g>
<g><path style="opacity:1" fill="#737373" d="M 41.5,40.5 C 41.56,39.9569 41.8933,39.6236 42.5,39.5C 43.4519,41.0453 43.7852,42.712 43.5,44.5C 42.8333,43.1667 42.1667,41.8333 41.5,40.5 Z"/></g>
<g><path style="opacity:1" fill="#191919" d="M 40.5,38.5 C 40.3284,39.4916 40.6618,40.1583 41.5,40.5C 38.1805,47.138 34.3472,53.4714 30,59.5C 28.295,57.4234 27.1283,55.09 26.5,52.5C 30.8333,47.5 35.5,42.8333 40.5,38.5 Z"/></g>
<g><path style="opacity:1" fill="#e8e8e8" d="M 118.5,45.5 C 118.842,44.6618 119.508,44.3284 120.5,44.5C 122.735,44.2053 124.735,44.5386 126.5,45.5C 125.508,52.6476 125.175,59.9809 125.5,67.5C 127.735,67.7947 129.735,67.4614 131.5,66.5C 134.5,66.1667 136.167,64.5 136.5,61.5C 136.833,61.5 137.167,61.5 137.5,61.5C 137.5,62.1667 137.5,62.8333 137.5,63.5C 137.579,64.9305 137.246,66.2638 136.5,67.5C 130.528,68.6636 124.528,68.8303 118.5,68C 119.827,60.4015 119.827,52.9015 118.5,45.5 Z"/></g>
<g><path style="opacity:1" fill="#050505" d="M 136.5,61.5 C 136.167,64.5 134.5,66.1667 131.5,66.5C 129.833,66.5 128.167,66.5 126.5,66.5C 126.334,61.8215 126.501,57.1548 127,52.5C 130.036,55.7044 133.203,58.7044 136.5,61.5 Z"/></g>
<g><path style="opacity:1" fill="#060606" d="M 118.5,45.5 C 119.827,52.9015 119.827,60.4015 118.5,68C 124.528,68.8303 130.528,68.6636 136.5,67.5C 137.246,66.2638 137.579,64.9305 137.5,63.5C 140.964,66.4625 144.297,69.6291 147.5,73C 145.536,74.451 144.203,76.2843 143.5,78.5C 139.5,80.5 136.5,83.5 134.5,87.5C 132.5,90.1667 130.167,92.5 127.5,94.5C 123.812,96.1884 121.145,98.855 119.5,102.5C 117.685,103.63 115.685,104.296 113.5,104.5C 110.467,100.79 107.8,96.7898 105.5,92.5C 107.997,88.5078 110.997,85.0078 114.5,82C 111.833,81.3333 109.167,81.3333 106.5,82C 107.308,82.3076 107.975,82.8076 108.5,83.5C 107.559,85.7721 106.226,87.7721 104.5,89.5C 101.348,87.7165 100.348,85.2165 101.5,82C 100.207,81.51 98.8734,81.3433 97.5,81.5C 97.5,73.1667 97.5,64.8333 97.5,56.5C 98.7138,53.0698 100.214,49.7365 102,46.5C 103.356,45.6198 104.856,45.2865 106.5,45.5C 106.814,53.0871 106.481,60.5871 105.5,68C 108.167,68.6667 110.833,68.6667 113.5,68C 112.354,60.9138 112.188,53.7471 113,46.5C 113.5,46 114,45.5 114.5,45C 109.177,44.5006 103.844,44.334 98.5,44.5C 97.6787,41.3586 97.1787,38.0252 97,34.5C 96.6174,33.944 96.1174,33.6107 95.5,33.5C 81.5,32.1667 67.5,32.1667 53.5,33.5C 52.8826,33.6107 52.3826,33.944 52,34.5C 51.5008,39.1548 51.3342,43.8215 51.5,48.5C 48.8348,53.5054 48.8348,58.5054 51.5,63.5C 52.1031,68.6186 51.4364,73.2853 49.5,77.5C 44.8215,77.3342 40.1548,77.5008 35.5,78C 36.4162,78.3742 37.2496,78.8742 38,79.5C 38.8232,88.0104 38.6566,96.3437 37.5,104.5C 36.1667,104.5 35.5,105.167 35.5,106.5C 25.0349,96.5355 14.7016,86.3688 4.5,76C 6.14117,74.871 7.14117,73.371 7.5,71.5C 8.16667,70.1667 9.16667,69.1667 10.5,68.5C 13.1873,68.6641 15.854,68.4974 18.5,68C 17.6198,66.6439 17.2865,65.1439 17.5,63.5C 17.5,63.1667 17.5,62.8333 17.5,62.5C 19.1793,61.0837 20.8459,59.7503 22.5,58.5C 24.4401,62.2797 26.6067,65.9464 29,69.5C 31.2061,63.4215 34.2061,57.7548 38,52.5C 38.3355,56.6888 38.8355,60.8555 39.5,65C 39.2451,66.3261 38.5784,67.3261 37.5,68C 41.5,68.6667 45.5,68.6667 49.5,68C 48.5838,67.6258 47.7504,67.1258 47,66.5C 45.5066,59.2195 44.3399,51.8862 43.5,44.5C 43.7852,42.712 43.4519,41.0453 42.5,39.5C 41.8933,39.6236 41.56,39.9569 41.5,40.5C 40.6618,40.1583 40.3284,39.4916 40.5,38.5C 45.1667,33.1667 50.1667,28.1667 55.5,23.5C 59.1667,21.8333 61.8333,19.1667 63.5,15.5C 67.1667,13.8333 69.8333,11.1667 71.5,7.5C 73.7892,5.99406 76.1226,4.82739 78.5,4C 92.4532,17.4492 105.787,31.2825 118.5,45.5 Z"/></g>
<g><path style="opacity:1" fill="#e7e7e7" d="M 54.5,66.5 C 53.5,65.5 52.5,64.5 51.5,63.5C 48.8348,58.5054 48.8348,53.5054 51.5,48.5C 52.7095,48.0679 53.7095,47.4013 54.5,46.5C 55.8816,45.1995 57.5483,44.3661 59.5,44C 74.5025,42.66 80.0025,49.16 76,63.5C 69.5613,70.1168 62.3947,71.1168 54.5,66.5 Z"/></g>
<g><path style="opacity:1" fill="#0d0d0d" d="M 60.5,45.5 C 65.5844,44.755 69.0844,46.755 71,51.5C 72.7135,57.7371 71.2135,62.9038 66.5,67C 62.4179,68.2931 59.2513,67.1265 57,63.5C 54.2355,56.6635 55.4022,50.6635 60.5,45.5 Z"/></g>
<g><path style="opacity:1" fill="#e6e6e6" d="M 70.5,36.5 C 70.8333,37.1667 71.1667,37.8333 71.5,38.5C 69.4194,39.6227 67.2527,40.6227 65,41.5C 63.3164,41.3166 63.1498,40.6499 64.5,39.5C 65.4013,38.7095 66.0679,37.7095 66.5,36.5C 67.9613,35.3143 69.2946,35.3143 70.5,36.5 Z"/></g>
<g><path style="opacity:1" fill="#585858" d="M 95.5,33.5 C 96.1174,33.6107 96.6174,33.944 97,34.5C 97.1787,38.0252 97.6787,41.3586 98.5,44.5C 98.3104,47.855 97.3104,50.855 95.5,53.5C 95.5,48.5 95.5,43.5 95.5,38.5C 87.5,38.5 79.5,38.5 71.5,38.5C 71.1667,37.8333 70.8333,37.1667 70.5,36.5C 86.159,35.8618 85.8256,35.0285 69.5,34C 78.1603,33.5002 86.8269,33.3336 95.5,33.5 Z"/></g>
<g><path style="opacity:1" fill="#595959" d="M 53.5,33.5 C 58.5111,33.3341 63.5111,33.5007 68.5,34C 67.244,34.4169 66.5774,35.2502 66.5,36.5C 66.0679,37.7095 65.4013,38.7095 64.5,39.5C 61.0381,38.5184 57.3714,38.185 53.5,38.5C 53.1936,41.3854 53.5269,44.0521 54.5,46.5C 53.7095,47.4013 52.7095,48.0679 51.5,48.5C 51.3342,43.8215 51.5008,39.1548 52,34.5C 52.3826,33.944 52.8826,33.6107 53.5,33.5 Z"/></g>
<g><path style="opacity:1" fill="#3d3d3d" d="M 53.5,33.5 C 67.5,32.1667 81.5,32.1667 95.5,33.5C 86.8269,33.3336 78.1603,33.5002 69.5,34C 85.8256,35.0285 86.159,35.8618 70.5,36.5C 69.2946,35.3143 67.9613,35.3143 66.5,36.5C 66.5774,35.2502 67.244,34.4169 68.5,34C 63.5111,33.5007 58.5111,33.3341 53.5,33.5 Z"/></g>
<g><path style="opacity:1" fill="#e8e8e8" d="M 95.5,53.5 C 97.3104,50.855 98.3104,47.855 98.5,44.5C 103.844,44.334 109.177,44.5006 114.5,45C 114,45.5 113.5,46 113,46.5C 112.188,53.7471 112.354,60.9138 113.5,68C 110.833,68.6667 108.167,68.6667 105.5,68C 106.481,60.5871 106.814,53.0871 106.5,45.5C 104.856,45.2865 103.356,45.6198 102,46.5C 100.214,49.7365 98.7138,53.0698 97.5,56.5C 96.5082,58.4561 95.5082,60.4561 94.5,62.5C 93.5974,64.6365 92.4307,66.6365 91,68.5C 87.4738,61.5858 84.1404,54.5858 81,47.5C 80.0975,46.2986 78.9308,45.4652 77.5,45C 80.8168,44.5017 84.1501,44.335 87.5,44.5C 88.7464,49.67 90.5797,54.67 93,59.5C 94.122,57.5932 94.9553,55.5932 95.5,53.5 Z"/></g>
<g><path style="opacity:1" fill="#525252" d="M 126.5,45.5 C 126.34,47.1992 126.506,48.8659 127,50.5C 130.704,54.0357 134.204,57.7024 137.5,61.5C 137.167,61.5 136.833,61.5 136.5,61.5C 133.203,58.7044 130.036,55.7044 127,52.5C 126.501,57.1548 126.334,61.8215 126.5,66.5C 128.167,66.5 129.833,66.5 131.5,66.5C 129.735,67.4614 127.735,67.7947 125.5,67.5C 125.175,59.9809 125.508,52.6476 126.5,45.5 Z"/></g>
<g><path style="opacity:1" fill="#393939" d="M 22.5,58.5 C 20.8459,59.7503 19.1793,61.0837 17.5,62.5C 17.0949,58.9521 17.5949,55.6188 19,52.5C 20.3937,54.3875 21.5604,56.3875 22.5,58.5 Z"/></g>
<g><path style="opacity:1" fill="#3f3f3f" d="M 97.5,56.5 C 97.5,64.8333 97.5,73.1667 97.5,81.5C 96.8333,81.5 96.1667,81.5 95.5,81.5C 95.8235,74.9779 95.4902,68.6446 94.5,62.5C 95.5082,60.4561 96.5082,58.4561 97.5,56.5 Z"/></g>
<g><path style="opacity:1" fill="#9c9c9c" d="M 17.5,63.5 C 17.2865,65.1439 17.6198,66.6439 18.5,68C 15.854,68.4974 13.1873,68.6641 10.5,68.5C 11.5,66.8333 12.8333,65.5 14.5,64.5C 14.5858,65.4959 14.2524,66.3292 13.5,67C 14.448,67.4828 15.448,67.6495 16.5,67.5C 16.2322,65.901 16.5655,64.5676 17.5,63.5 Z"/></g>
<g><path style="opacity:1" fill="#464646" d="M 51.5,63.5 C 52.5,64.5 53.5,65.5 54.5,66.5C 53.5166,70.2984 53.1832,74.2984 53.5,78.5C 51.901,78.7678 50.5676,78.4345 49.5,77.5C 51.4364,73.2853 52.1031,68.6186 51.5,63.5 Z"/></g>
<g><path style="opacity:1" fill="#484848" d="M 137.5,61.5 C 141.5,65.1667 145.5,68.8333 149.5,72.5C 149.5,73.1667 149.5,73.8333 149.5,74.5C 147.246,75.4151 145.246,76.7484 143.5,78.5C 144.203,76.2843 145.536,74.451 147.5,73C 144.297,69.6291 140.964,66.4625 137.5,63.5C 137.5,62.8333 137.5,62.1667 137.5,61.5 Z"/></g>
<g><path style="opacity:1" fill="#010101" d="M -0.5,72.5 C 0.833333,73.1667 1.83333,74.1667 2.5,75.5C 25.9651,99.4653 49.6317,123.299 73.5,147C 75.7715,146.923 77.4382,145.757 78.5,143.5C 76.856,144.366 75.1893,144.866 73.5,145C 60.6314,132.298 47.9647,119.465 35.5,106.5C 40.6946,106.821 45.6946,106.487 50.5,105.5C 50.8333,105.5 51.1667,105.5 51.5,105.5C 51.19,108.713 51.5233,111.713 52.5,114.5C 52.6107,115.117 52.944,115.617 53.5,116C 67.6728,116.827 81.6728,116.661 95.5,115.5C 96.7868,114.129 97.4535,112.295 97.5,110C 97.4944,107.967 97.1611,106.134 96.5,104.5C 97.2984,101.511 98.7984,98.8448 101,96.5C 103.157,98.8171 104.657,101.484 105.5,104.5C 104.957,104.56 104.624,104.893 104.5,105.5C 108.041,106.2 111.541,106.867 115,107.5C 116.707,105.963 118.207,104.296 119.5,102.5C 122.548,100.118 125.215,97.4518 127.5,94.5C 130.167,92.5 132.5,90.1667 134.5,87.5C 137.833,84.8333 140.833,81.8333 143.5,78.5C 145.246,76.7484 147.246,75.4151 149.5,74.5C 149.5,99.5 149.5,124.5 149.5,149.5C 99.5,149.5 49.5,149.5 -0.5,149.5C -0.5,123.833 -0.5,98.1667 -0.5,72.5 Z"/></g>
<g><path style="opacity:1" fill="#f2f2f2" d="M 49.5,77.5 C 50.5676,78.4345 51.901,78.7678 53.5,78.5C 57.4327,82.2905 57.4327,86.1238 53.5,90C 55.0905,91.0458 56.5905,92.2125 58,93.5C 59.6913,98.8689 58.1913,102.869 53.5,105.5C 52.8333,105.5 52.1667,105.5 51.5,105.5C 51.1667,105.5 50.8333,105.5 50.5,105.5C 45.9677,105.818 41.6344,105.485 37.5,104.5C 38.6566,96.3437 38.8232,88.0104 38,79.5C 37.2496,78.8742 36.4162,78.3742 35.5,78C 40.1548,77.5008 44.8215,77.3342 49.5,77.5 Z"/></g>
<g><path style="opacity:1" fill="#e9e9e9" d="M 95.5,81.5 C 96.1667,81.5 96.8333,81.5 97.5,81.5C 98.8734,81.3433 100.207,81.51 101.5,82C 100.348,85.2165 101.348,87.7165 104.5,89.5C 106.226,87.7721 107.559,85.7721 108.5,83.5C 107.975,82.8076 107.308,82.3076 106.5,82C 109.167,81.3333 111.833,81.3333 114.5,82C 110.997,85.0078 107.997,88.5078 105.5,92.5C 107.8,96.7898 110.467,100.79 113.5,104.5C 110.833,105.833 108.167,105.833 105.5,104.5C 104.657,101.484 103.157,98.8171 101,96.5C 98.7984,98.8448 97.2984,101.511 96.5,104.5C 96.6716,105.492 96.3382,106.158 95.5,106.5C 93.8333,105.833 92.1667,105.167 90.5,104.5C 94.315,101.841 97.315,98.3405 99.5,94C 97.3309,88.9742 93.9976,84.9742 89.5,82C 91.4727,81.5045 93.4727,81.3379 95.5,81.5 Z"/></g>
<g><path style="opacity:1" fill="#464646" d="M 143.5,78.5 C 140.833,81.8333 137.833,84.8333 134.5,87.5C 136.5,83.5 139.5,80.5 143.5,78.5 Z"/></g>
<g><path style="opacity:1" fill="#e7e7e7" d="M 68.5,81.5 C 76.2261,79.9924 82.7261,81.9924 88,87.5C 91.4185,99.6371 86.7519,105.97 74,106.5C 62.6819,104.873 58.6819,98.5402 62,87.5C 64.0627,85.2659 66.2294,83.2659 68.5,81.5 Z"/></g>
<g><path style="opacity:1" fill="#0b0b0b" d="M 72.5,82.5 C 76.8884,81.9433 80.0551,83.6099 82,87.5C 82.8098,92.2574 82.4764,96.9241 81,101.5C 75.7845,106.019 71.4512,105.353 68,99.5C 67.3333,95.5 67.3333,91.5 68,87.5C 69.025,85.313 70.525,83.6464 72.5,82.5 Z"/></g>
<g><path style="opacity:1" fill="#0b0b0b" d="M 44.5,79.5 C 48.5308,79.0335 50.5308,80.8668 50.5,85C 50.1661,87.1745 49.1661,89.0079 47.5,90.5C 51.3137,93.1867 52.4804,96.8533 51,101.5C 50.1841,102.823 49.0174,103.489 47.5,103.5C 46.5,103.5 45.5,103.5 44.5,103.5C 44.5,95.5 44.5,87.5 44.5,79.5 Z"/></g>
<g><path style="opacity:1" fill="#ababab" d="M 44.5,79.5 C 44.5,87.5 44.5,95.5 44.5,103.5C 45.5,103.5 46.5,103.5 47.5,103.5C 46.4324,104.434 45.099,104.768 43.5,104.5C 43.1739,95.9832 43.5073,87.6499 44.5,79.5 Z"/></g>
<g><path style="opacity:1" fill="#494949" d="M 127.5,94.5 C 125.215,97.4518 122.548,100.118 119.5,102.5C 121.145,98.855 123.812,96.1884 127.5,94.5 Z"/></g>
<g><path style="opacity:1" fill="#393939" d="M 37.5,104.5 C 41.6344,105.485 45.9677,105.818 50.5,105.5C 45.6946,106.487 40.6946,106.821 35.5,106.5C 35.5,105.167 36.1667,104.5 37.5,104.5 Z"/></g>
<g><path style="opacity:1" fill="#525252" d="M 90.5,104.5 C 92.1667,105.167 93.8333,105.833 95.5,106.5C 93.1432,106.663 90.8098,106.497 88.5,106C 89.0442,105.283 89.7109,104.783 90.5,104.5 Z"/></g>
<g><path style="opacity:1" fill="#626262" d="M 119.5,102.5 C 118.207,104.296 116.707,105.963 115,107.5C 111.541,106.867 108.041,106.2 104.5,105.5C 104.624,104.893 104.957,104.56 105.5,104.5C 108.167,105.833 110.833,105.833 113.5,104.5C 115.685,104.296 117.685,103.63 119.5,102.5 Z"/></g>
<g><path style="opacity:1" fill="#414141" d="M 96.5,104.5 C 97.1611,106.134 97.4944,107.967 97.5,110C 97.4535,112.295 96.7868,114.129 95.5,115.5C 81.6728,116.661 67.6728,116.827 53.5,116C 52.944,115.617 52.6107,115.117 52.5,114.5C 51.5233,111.713 51.19,108.713 51.5,105.5C 52.1667,105.5 52.8333,105.5 53.5,105.5C 60.1333,106.83 67.1333,107.497 74.5,107.5C 81.6748,107.5 88.6748,107.166 95.5,106.5C 96.3382,106.158 96.6716,105.492 96.5,104.5 Z"/></g>
<g><path style="opacity:1" fill="#5f5f5f" d="M 52.5,114.5 C 52.6509,111.282 53.4842,110.949 55,113.5C 55.3176,111.939 56.1509,110.772 57.5,110C 56.5,109.667 55.5,109.333 54.5,109C 60.5,108.333 66.5,108.333 72.5,109C 71.1667,111 71.1667,113 72.5,115C 65.7834,115.756 59.1167,115.589 52.5,114.5 Z"/></g>
<g><path style="opacity:1" fill="#5f5f5f" d="M 95.5,115.5 C 89.1579,115.666 82.8246,115.5 76.5,115C 77.8333,113 77.8333,111 76.5,109C 83.1583,108.5 89.825,108.334 96.5,108.5C 96.702,110.95 96.3686,113.283 95.5,115.5 Z"/></g>
<g><path style="opacity:1" fill="#4c4c4c" d="M 102.5,119.5 C 104.131,115.696 106.798,113.196 110.5,112C 107.964,114.705 105.297,117.205 102.5,119.5 Z"/></g>
<g><path style="opacity:1" fill="#494949" d="M 102.5,119.5 C 98.0699,125.719 92.7365,131.053 86.5,135.5C 86.369,134.761 86.5357,134.094 87,133.5C 92.4075,128.917 97.5742,124.25 102.5,119.5 Z"/></g>
<g><path style="opacity:1" fill="#464646" d="M 7.5,71.5 C 7.14117,73.371 6.14117,74.871 4.5,76C 14.7016,86.3688 25.0349,96.5355 35.5,106.5C 47.9647,119.465 60.6314,132.298 73.5,145C 75.1893,144.866 76.856,144.366 78.5,143.5C 77.4382,145.757 75.7715,146.923 73.5,147C 49.6317,123.299 25.9651,99.4653 2.5,75.5C 4.16667,74.1667 5.83333,72.8333 7.5,71.5 Z"/></g>
<g><path style="opacity:1" fill="#4a4a4a" d="M 86.5,135.5 C 84.1667,138.5 81.5,141.167 78.5,143.5C 80.1667,139.833 82.8333,137.167 86.5,135.5 Z"/></g>
</svg>
